<?xml version="1.0" encoding="iso-8859-1"?>
<!-- Generator: Adobe Illustrator 19.0.0, SVG Export Plug-In . SVG Version: 6.00 Build 0)  -->
<svg version="1.1" id="Layer_1" xmlns="http://www.w3.org/2000/svg" xmlns:xlink="http://www.w3.org/1999/xlink" x="0px" y="0px"
	 viewBox="0 0 512 512" style="enable-background:new 0 0 512 512;" xml:space="preserve">
<circle style="fill:#C1D354;" cx="256" cy="256" r="256"/>
<path style="fill:#9DB138;" d="M503.698,320.829L256.003,73.134l-0.584,6.62l0,0l-2.304,26.15v0.038
	c-0.878,1.055-1.684,2.122-2.491,3.213c-1.352,1.792-2.67,3.62-3.95,5.486c-0.366,0.55-0.765,1.098-1.132,1.651
	c-1.172,1.713-2.301,3.436-3.402,5.194c-0.108,0.141-0.22,0.292-0.292,0.435c-1.39,2.156-2.703,4.311-3.988,6.548
	c-1.313,2.156-2.557,4.385-3.766,6.618c-0.036,0.11-0.113,0.218-0.182,0.366c-1.242,2.34-2.486,4.716-3.658,7.127
	c-0.036,0.108-0.105,0.261-0.182,0.366c-0.95,1.979-1.866,3.95-2.78,5.962c-1.019,2.304-2.01,4.641-2.959,7.022
	c-0.22,0.471-0.404,0.914-0.586,1.385h0.038c-9.582,24.069-14.851,50.286-14.851,77.76c0,10.383,0.735,20.585,2.199,30.569
	c-19.896,15.283-32.881,40.445-32.881,68.861c0,7.647,0.952,15.066,2.708,22.124l70.548,70.548
	c1.347,3.715,2.836,7.601,4.493,11.666l64.842,64.845C410.12,480.381,480.392,410.109,503.698,320.829z"/>
<path style="fill:#FF9D4D;" d="M256,350.031c-8.668,0-15.708,5.97-15.708,27.502c0,10.627,3.297,30.881,15.708,61.32
	c12.413-30.438,15.708-50.693,15.708-61.32C271.708,356.001,264.678,350.031,256,350.031z"/>
<path style="fill:#F28124;" d="M256,350.031c-5.404,0-9.792,3.722-9.792,17.144c0,6.63,2.056,19.244,9.792,38.221
	c7.734-18.977,9.792-31.59,9.792-38.221C265.792,353.756,261.407,350.031,256,350.031z"/>
<path style="fill:#34495E;" d="M256,315.648c35.871,0,66.063,17.382,75.026,41.004c1.761-7.06,2.711-14.474,2.711-22.136
	c0-46.564-34.803-84.319-77.734-84.319s-77.737,37.755-77.737,84.319c0,7.662,0.947,15.078,2.711,22.136
	C189.939,333.03,220.129,315.648,256,315.648z"/>
<path style="fill:#F2F9FF;" d="M285.353,319.762c11.377-25.923,17.695-54.561,17.695-84.682c0-50.337-17.633-96.55-47.048-132.831
	c-29.409,36.28-47.048,82.496-47.048,132.831c0,30.121,6.321,58.76,17.695,84.682H285.353z"/>
<path style="fill:#FF8E31;" d="M220.291,303.419c1.905,5.548,4.017,11.005,6.356,16.343h58.706
	c2.342-5.338,4.452-10.796,6.356-16.343H220.291z"/>
<polygon style="fill:#34495E;" points="292.882,346.783 219.118,346.783 231.05,319.762 280.957,319.762 "/>
<path style="fill:#283A4D;" d="M249.324,303.619c0,20.969,2.57,39.841,6.676,53.033c4.106-13.189,6.676-32.061,6.676-53.033
	c0-20.972-2.573-39.849-6.676-53.038C251.894,263.767,249.324,282.644,249.324,303.619z"/>
<path style="fill:#34495E;" d="M256,225.377c-13.34,0-24.2-10.854-24.2-24.2c0-13.338,10.857-24.195,24.2-24.195
	c13.34,0,24.197,10.857,24.197,24.195C280.197,214.523,269.34,225.377,256,225.377z"/>
<circle style="fill:#CEE2F2;" cx="256" cy="201.165" r="18.022"/>
<path style="fill:#F2F9FF;" d="M256,183.158c-9.953,0-18.022,8.069-18.022,18.022c0,9.958,8.069,18.022,18.022,18.022V183.158z"/>
<polygon style="fill:#34495E;" points="256,73.142 259.011,107.208 252.989,107.208 "/>
<path style="fill:#FF8E31;" d="M256,102.249c-13.368,16.484-24.289,35.028-32.241,55.068h64.481
	C280.289,137.28,269.368,118.733,256,102.249z"/>
<path style="fill:#5D6D7E;" d="M256,250.58c-4.106,13.187-6.676,32.064-6.676,53.038c0,20.969,2.57,39.841,6.676,53.033V250.58z"/>
<g>
</g>
<g>
</g>
<g>
</g>
<g>
</g>
<g>
</g>
<g>
</g>
<g>
</g>
<g>
</g>
<g>
</g>
<g>
</g>
<g>
</g>
<g>
</g>
<g>
</g>
<g>
</g>
<g>
</g>
</svg>
