<svg xmlns="http://www.w3.org/2000/svg" width="3200" height="900"><path d="M1510,445L1657,308L1523,300Z" fill="#84afd3" stroke="#84afd3" stroke-width="1.51"/><path d="M1510,445L1688,458L1657,308Z" fill="#7aabd0" stroke="#7aabd0" stroke-width="1.51"/><path d="M1510,445L1515,607L1688,458Z" fill="#6ea6cd" stroke="#6ea6cd" stroke-width="1.51"/><path d="M1515,607L1697,597L1688,458Z" fill="#63a0ca" stroke="#63a0ca" stroke-width="1.51"/><path d="M1347,272L1342,461L1510,445Z" fill="#88b0d4" stroke="#88b0d4" stroke-width="1.51"/><path d="M1510,445L1342,461L1515,607Z" fill="#75a8ce" stroke="#75a8ce" stroke-width="1.51"/><path d="M1523,300L1347,272L1510,445Z" fill="#8cb2d5" stroke="#8cb2d5" stroke-width="1.51"/><path d="M1380,117L1347,272L1523,300Z" fill="#9cb9d9" stroke="#9cb9d9" stroke-width="1.51"/><path d="M1827,607L1844,448L1688,458Z" fill="#62a0ca" stroke="#62a0ca" stroke-width="1.51"/><path d="M1688,458L1844,448L1657,308Z" fill="#74a8cf" stroke="#74a8cf" stroke-width="1.51"/><path d="M1657,308L1537,113L1523,300Z" fill="#93b5d7" stroke="#93b5d7" stroke-width="1.51"/><path d="M1681,117L1537,113L1657,308Z" fill="#98b7d7" stroke="#98b7d7" stroke-width="1.51"/><path d="M1844,448L1838,272L1657,308Z" fill="#7baacf" stroke="#7baacf" stroke-width="1.51"/><path d="M1838,272L1681,117L1657,308Z" fill="#8cb1d4" stroke="#8cb1d4" stroke-width="1.51"/><path d="M1697,597L1827,607L1688,458Z" fill="#5d9ec8" stroke="#5d9ec8" stroke-width="1.51"/><path d="M1832,755L1827,607L1697,597Z" fill="#4b95c4" stroke="#4b95c4" stroke-width="1.51"/><path d="M1537,113L1380,117L1523,300Z" fill="#9fbada" stroke="#9fbada" stroke-width="1.51"/><path d="M1838,272L1826,147L1681,117Z" fill="#91b3d5" stroke="#91b3d5" stroke-width="1.51"/><path d="M1342,461L1335,603L1515,607Z" fill="#70a5cd" stroke="#70a5cd" stroke-width="1.51"/><path d="M1213,619L1335,603L1342,461Z" fill="#75a7cf" stroke="#75a7cf" stroke-width="1.51"/><path d="M1515,607L1685,761L1697,597Z" fill="#5599c6" stroke="#5599c6" stroke-width="1.51"/><path d="M1351,770L1542,768L1515,607Z" fill="#5b97c5" stroke="#5b97c5" stroke-width="1.51"/><path d="M1542,768L1685,761L1515,607Z" fill="#5495c4" stroke="#5495c4" stroke-width="1.51"/><path d="M1347,272L1200,291L1342,461Z" fill="#93b5d6" stroke="#93b5d6" stroke-width="1.51"/><path d="M1180,119L1200,291L1347,272Z" fill="#a5bddb" stroke="#a5bddb" stroke-width="1.51"/><path d="M1200,291L1175,444L1342,461Z" fill="#8fb3d5" stroke="#8fb3d5" stroke-width="1.51"/><path d="M1838,272L1995,303L1826,147Z" fill="#83add1" stroke="#83add1" stroke-width="1.51"/><path d="M1844,448L1995,303L1838,272Z" fill="#75a7ce" stroke="#75a7ce" stroke-width="1.51"/><path d="M2019,441L1995,303L1844,448Z" fill="#69a3cb" stroke="#69a3cb" stroke-width="1.51"/><path d="M1681,117L1679,-34L1537,113Z" fill="#a5bddb" stroke="#a5bddb" stroke-width="1.51"/><path d="M1537,113L1362,-7L1380,117Z" fill="#aec1dd" stroke="#aec1dd" stroke-width="1.51"/><path d="M1842,-37L1679,-34L1681,117Z" fill="#a4bedb" stroke="#a4bedb" stroke-width="1.51"/><path d="M1842,-37L1681,117L1826,147Z" fill="#9cb9d8" stroke="#9cb9d8" stroke-width="1.51"/><path d="M1679,-34L1511,-50L1537,113Z" fill="#acc2de" stroke="#acc2de" stroke-width="1.51"/><path d="M1380,117L1180,119L1347,272Z" fill="#a9bedc" stroke="#a9bedc" stroke-width="1.51"/><path d="M1980,618L2019,441L1844,448Z" fill="#599cc7" stroke="#599cc7" stroke-width="1.51"/><path d="M1980,618L1844,448L1827,607Z" fill="#539ac6" stroke="#539ac6" stroke-width="1.51"/><path d="M1335,603L1351,770L1515,607Z" fill="#649ec8" stroke="#649ec8" stroke-width="1.51"/><path d="M1175,444L1213,619L1342,461Z" fill="#80acd1" stroke="#80acd1" stroke-width="1.51"/><path d="M1511,-50L1362,-7L1537,113Z" fill="#b0c4df" stroke="#b0c4df" stroke-width="1.51"/><path d="M1685,761L1832,755L1697,597Z" fill="#4b92c2" stroke="#4b92c2" stroke-width="1.51"/><path d="M1815,946L1832,755L1685,761Z" fill="#4087bc" stroke="#4087bc" stroke-width="1.51"/><path d="M1213,752L1351,770L1335,603Z" fill="#669bc8" stroke="#669bc8" stroke-width="1.51"/><path d="M1832,755L1980,618L1827,607Z" fill="#4492c1" stroke="#4492c1" stroke-width="1.51"/><path d="M1362,-7L1180,119L1380,117Z" fill="#b3c4df" stroke="#b3c4df" stroke-width="1.51"/><path d="M1052,282L1052,448L1175,444Z" fill="#97b6d8" stroke="#97b6d8" stroke-width="1.51"/><path d="M2017,109L1842,-37L1826,147Z" fill="#98b6d7" stroke="#98b6d7" stroke-width="1.51"/><path d="M1679,-34L1516,-195L1511,-50Z" fill="#b4c8e1" stroke="#b4c8e1" stroke-width="1.51"/><path d="M1995,303L2017,109L1826,147Z" fill="#88aed2" stroke="#88aed2" stroke-width="1.51"/><path d="M2154,152L2017,109L1995,303Z" fill="#81abd1" stroke="#81abd1" stroke-width="1.51"/><path d="M1213,619L1213,752L1335,603Z" fill="#6ca1cb" stroke="#6ca1cb" stroke-width="1.51"/><path d="M1044,775L1213,752L1213,619Z" fill="#6e9dc9" stroke="#6e9dc9" stroke-width="1.51"/><path d="M1175,444L1023,611L1213,619Z" fill="#7fabd0" stroke="#7fabd0" stroke-width="1.51"/><path d="M1052,282L1175,444L1200,291Z" fill="#9cb8d8" stroke="#9cb8d8" stroke-width="1.51"/><path d="M1180,119L1052,282L1200,291Z" fill="#aabedb" stroke="#aabedb" stroke-width="1.51"/><path d="M1542,768L1664,917L1685,761Z" fill="#4a8abf" stroke="#4a8abf" stroke-width="1.51"/><path d="M1832,755L1984,753L1980,618Z" fill="#3c8dbf" stroke="#3c8dbf" stroke-width="1.51"/><path d="M1544,948L1664,917L1542,768Z" fill="#4c88b9" stroke="#4c88b9" stroke-width="1.51"/><path d="M1544,948L1542,768L1376,929Z" fill="#518aba" stroke="#518aba" stroke-width="1.51"/><path d="M1995,918L1984,753L1832,755Z" fill="#3383ba" stroke="#3383ba" stroke-width="1.51"/><path d="M2172,464L2145,293L2019,441Z" fill="#619ec9" stroke="#619ec9" stroke-width="1.51"/><path d="M1180,119L1035,142L1052,282Z" fill="#b2c2de" stroke="#b2c2de" stroke-width="1.51"/><path d="M1362,-7L1207,-21L1180,119Z" fill="#bac8e1" stroke="#bac8e1" stroke-width="1.51"/><path d="M1368,-170L1207,-21L1362,-7Z" fill="#becce3" stroke="#becce3" stroke-width="1.51"/><path d="M2019,441L2145,293L1995,303Z" fill="#6ca3cc" stroke="#6ca3cc" stroke-width="1.51"/><path d="M2172,464L2019,441L2155,625Z" fill="#4d97c5" stroke="#4d97c5" stroke-width="1.51"/><path d="M1376,929L1542,768L1351,770Z" fill="#588ec1" stroke="#588ec1" stroke-width="1.51"/><path d="M1511,-50L1368,-170L1362,-7Z" fill="#bacbe3" stroke="#bacbe3" stroke-width="1.51"/><path d="M1687,-198L1516,-195L1679,-34Z" fill="#b4cae2" stroke="#b4cae2" stroke-width="1.51"/><path d="M1842,-37L1687,-198L1679,-34Z" fill="#acc4df" stroke="#acc4df" stroke-width="1.51"/><path d="M1850,-205L1687,-198L1842,-37Z" fill="#acc5df" stroke="#acc5df" stroke-width="1.51"/><path d="M2017,109L2007,-32L1842,-37Z" fill="#99b7d8" stroke="#99b7d8" stroke-width="1.51"/><path d="M2172,-17L2007,-32L2017,109Z" fill="#94b5d6" stroke="#94b5d6" stroke-width="1.51"/><path d="M1206,944L1376,929L1351,770Z" fill="#5d8dbc" stroke="#5d8dbc" stroke-width="1.51"/><path d="M1516,-195L1368,-170L1511,-50Z" fill="#bbcde3" stroke="#bbcde3" stroke-width="1.51"/><path d="M2155,625L2019,441L1980,618Z" fill="#4795c3" stroke="#4795c3" stroke-width="1.51"/><path d="M1039,-11L1035,142L1180,119Z" fill="#bdc8e1" stroke="#bdc8e1" stroke-width="1.51"/><path d="M899,438L1023,611L1052,448Z" fill="#8db2d5" stroke="#8db2d5" stroke-width="1.51"/><path d="M1213,752L1206,944L1351,770Z" fill="#6292c3" stroke="#6292c3" stroke-width="1.51"/><path d="M1052,448L1023,611L1175,444Z" fill="#89b0d4" stroke="#89b0d4" stroke-width="1.51"/><path d="M899,438L1052,448L1052,282Z" fill="#9cb9d8" stroke="#9cb9d8" stroke-width="1.51"/><path d="M1664,917L1815,946L1685,761Z" fill="#4385b7" stroke="#4385b7" stroke-width="1.51"/><path d="M1668,1065L1815,946L1664,917Z" fill="#407fad" stroke="#407fad" stroke-width="1.51"/><path d="M2300,137L2154,152L2145,293Z" fill="#7da6ce" stroke="#7da6ce" stroke-width="1.51"/><path d="M2145,293L2154,152L1995,303Z" fill="#78a7cd" stroke="#78a7cd" stroke-width="1.51"/><path d="M1984,753L2155,625L1980,618Z" fill="#378ebf" stroke="#378ebf" stroke-width="1.51"/><path d="M2179,753L2155,625L1984,753Z" fill="#2e88bc" stroke="#2e88bc" stroke-width="1.51"/><path d="M1687,-198L1222,-205L1516,-195Z" fill="#bfcfe5" stroke="#bfcfe5" stroke-width="1.51"/><path d="M1977,-179L1850,-205L1842,-37Z" fill="#a7c2dd" stroke="#a7c2dd" stroke-width="1.51"/><path d="M1023,611L1044,775L1213,619Z" fill="#74a3cd" stroke="#74a3cd" stroke-width="1.51"/><path d="M1047,-200L1039,-11L1207,-21Z" fill="#c9d1e7" stroke="#c9d1e7" stroke-width="1.51"/><path d="M1207,-21L1039,-11L1180,119Z" fill="#bfcae2" stroke="#bfcae2" stroke-width="1.51"/><path d="M1815,946L1995,918L1832,755Z" fill="#3681b5" stroke="#3681b5" stroke-width="1.51"/><path d="M1501,1103L1668,1065L1544,948Z" fill="#477ca6" stroke="#477ca6" stroke-width="1.51"/><path d="M1044,775L1206,944L1213,752Z" fill="#6894c4" stroke="#6894c4" stroke-width="1.51"/><path d="M2007,-32L1977,-179L1842,-37Z" fill="#a2bedb" stroke="#a2bedb" stroke-width="1.51"/><path d="M2178,-170L1977,-179L2007,-32Z" fill="#9fbddb" stroke="#9fbddb" stroke-width="1.51"/><path d="M1368,-170L1222,-205L1207,-21Z" fill="#c5d1e6" stroke="#c5d1e6" stroke-width="1.51"/><path d="M1516,-195L1222,-205L1368,-170Z" fill="#c3d1e6" stroke="#c3d1e6" stroke-width="1.51"/><path d="M1850,-205L1222,-205L1687,-198Z" fill="#b9cde3" stroke="#b9cde3" stroke-width="1.51"/><path d="M895,154L1052,282L1035,142Z" fill="#b5c4df" stroke="#b5c4df" stroke-width="1.51"/><path d="M859,305L899,438L1052,282Z" fill="#a5bddb" stroke="#a5bddb" stroke-width="1.51"/><path d="M1023,611L861,767L1044,775Z" fill="#77a1cb" stroke="#77a1cb" stroke-width="1.51"/><path d="M1815,946L1848,1069L1995,918Z" fill="#347aaa" stroke="#347aaa" stroke-width="1.51"/><path d="M1544,948L1668,1065L1664,917Z" fill="#4681af" stroke="#4681af" stroke-width="1.51"/><path d="M1501,1103L1544,948L1376,929Z" fill="#4f82ae" stroke="#4f82ae" stroke-width="1.51"/><path d="M2342,613L2312,444L2172,464Z" fill="#4a92c2" stroke="#4a92c2" stroke-width="1.51"/><path d="M1995,918L2179,753L1984,753Z" fill="#2880b9" stroke="#2880b9" stroke-width="1.51"/><path d="M2323,311L2145,293L2172,464Z" fill="#659dc9" stroke="#659dc9" stroke-width="1.51"/><path d="M2300,137L2172,-17L2154,152Z" fill="#8aabd1" stroke="#8aabd1" stroke-width="1.51"/><path d="M2154,152L2172,-17L2017,109Z" fill="#8dafd3" stroke="#8dafd3" stroke-width="1.51"/><path d="M1039,-11L895,154L1035,142Z" fill="#c1c9e2" stroke="#c1c9e2" stroke-width="1.51"/><path d="M1361,1111L1501,1103L1376,929Z" fill="#507ea7" stroke="#507ea7" stroke-width="1.51"/><path d="M2342,613L2172,464L2155,625Z" fill="#3f8fc0" stroke="#3f8fc0" stroke-width="1.51"/><path d="M895,154L859,305L1052,282Z" fill="#b1c2dd" stroke="#b1c2dd" stroke-width="1.51"/><path d="M1668,1065L1848,1069L1815,946Z" fill="#3a78a5" stroke="#3a78a5" stroke-width="1.51"/><path d="M1995,918L2168,926L2179,753Z" fill="#227bb2" stroke="#227bb2" stroke-width="1.51"/><path d="M1501,1103L1848,1069L1668,1065Z" fill="#3f759e" stroke="#3f759e" stroke-width="1.51"/><path d="M2312,444L2323,311L2172,464Z" fill="#5c98c6" stroke="#5c98c6" stroke-width="1.51"/><path d="M899,438L873,618L1023,611Z" fill="#89afd3" stroke="#89afd3" stroke-width="1.51"/><path d="M1044,775L1024,948L1206,944Z" fill="#6991be" stroke="#6991be" stroke-width="1.51"/><path d="M737,594L873,618L899,438Z" fill="#8eb2d5" stroke="#8eb2d5" stroke-width="1.51"/><path d="M2323,311L2300,137L2145,293Z" fill="#74a1cb" stroke="#74a1cb" stroke-width="1.51"/><path d="M1206,944L1361,1111L1376,929Z" fill="#5985b0" stroke="#5985b0" stroke-width="1.51"/><path d="M1184,1089L1361,1111L1206,944Z" fill="#5981a8" stroke="#5981a8" stroke-width="1.51"/><path d="M1039,-11L897,-37L895,154Z" fill="#c7cee5" stroke="#c7cee5" stroke-width="1.51"/><path d="M1222,-205L1047,-200L1207,-21Z" fill="#cad3e8" stroke="#cad3e8" stroke-width="1.51"/><path d="M2179,753L2342,613L2155,625Z" fill="#2e88bc" stroke="#2e88bc" stroke-width="1.51"/><path d="M2312,444L2460,462L2323,311Z" fill="#5995c5" stroke="#5995c5" stroke-width="1.51"/><path d="M2327,791L2342,613L2179,753Z" fill="#2781b9" stroke="#2781b9" stroke-width="1.51"/><path d="M1993,1103L2168,926L1995,918Z" fill="#2575a7" stroke="#2575a7" stroke-width="1.51"/><path d="M857,918L1024,948L1044,775Z" fill="#6f93c0" stroke="#6f93c0" stroke-width="1.51"/><path d="M1047,-200L897,-37L1039,-11Z" fill="#ced4e8" stroke="#ced4e8" stroke-width="1.51"/><path d="M707,150L709,302L859,305Z" fill="#b8c5e0" stroke="#b8c5e0" stroke-width="1.51"/><path d="M2172,-17L2178,-170L2007,-32Z" fill="#99b8d8" stroke="#99b8d8" stroke-width="1.51"/><path d="M1977,-179L2342,-205L1850,-205Z" fill="#a2bfdc" stroke="#a2bfdc" stroke-width="1.51"/><path d="M2316,-46L2178,-170L2172,-17Z" fill="#97b4d6" stroke="#97b4d6" stroke-width="1.51"/><path d="M1024,948L1184,1089L1206,944Z" fill="#6289b3" stroke="#6289b3" stroke-width="1.51"/><path d="M743,751L861,767L873,618Z" fill="#7fa4ce" stroke="#7fa4ce" stroke-width="1.51"/><path d="M873,618L861,767L1023,611Z" fill="#7ea7cf" stroke="#7ea7cf" stroke-width="1.51"/><path d="M1361,1111L1993,1103L1501,1103Z" fill="#41749b" stroke="#41749b" stroke-width="1.51"/><path d="M1501,1103L1993,1103L1848,1069Z" fill="#37719b" stroke="#37719b" stroke-width="1.51"/><path d="M1848,1069L1993,1103L1995,918Z" fill="#2d74a2" stroke="#2d74a2" stroke-width="1.51"/><path d="M2300,137L2316,-46L2172,-17Z" fill="#8eaed2" stroke="#8eaed2" stroke-width="1.51"/><path d="M2486,-26L2316,-46L2300,137Z" fill="#8caad1" stroke="#8caad1" stroke-width="1.51"/><path d="M2490,297L2300,137L2323,311Z" fill="#729dc9" stroke="#729dc9" stroke-width="1.51"/><path d="M2337,919L2327,791L2168,926Z" fill="#1a75ad" stroke="#1a75ad" stroke-width="1.51"/><path d="M2168,926L2327,791L2179,753Z" fill="#1e7ab4" stroke="#1e7ab4" stroke-width="1.51"/><path d="M705,459L737,594L899,438Z" fill="#98b6d7" stroke="#98b6d7" stroke-width="1.51"/><path d="M705,459L899,438L859,305Z" fill="#a2bbda" stroke="#a2bbda" stroke-width="1.51"/><path d="M2459,606L2460,462L2342,613Z" fill="#3b89be" stroke="#3b89be" stroke-width="1.51"/><path d="M2342,613L2460,462L2312,444Z" fill="#478ec0" stroke="#478ec0" stroke-width="1.51"/><path d="M707,150L859,305L895,154Z" fill="#bbc6e0" stroke="#bbc6e0" stroke-width="1.51"/><path d="M709,302L705,459L859,305Z" fill="#abbfdc" stroke="#abbfdc" stroke-width="1.51"/><path d="M897,-37L707,150L895,154Z" fill="#c8cde4" stroke="#c8cde4" stroke-width="1.51"/><path d="M1047,-200L876,-178L897,-37Z" fill="#d4d7ea" stroke="#d4d7ea" stroke-width="1.51"/><path d="M2473,749L2459,606L2342,613Z" fill="#2782ba" stroke="#2782ba" stroke-width="1.51"/><path d="M861,767L857,918L1044,775Z" fill="#7499c7" stroke="#7499c7" stroke-width="1.51"/><path d="M1024,948L1020,1089L1184,1089Z" fill="#6385ab" stroke="#6385ab" stroke-width="1.51"/><path d="M743,751L857,918L861,767Z" fill="#799bc9" stroke="#799bc9" stroke-width="1.51"/><path d="M709,302L573,463L705,459Z" fill="#a8bfdc" stroke="#a8bfdc" stroke-width="1.51"/><path d="M696,-43L707,150L897,-37Z" fill="#d0d2e7" stroke="#d0d2e7" stroke-width="1.51"/><path d="M869,1065L1020,1089L1024,948Z" fill="#6888ae" stroke="#6888ae" stroke-width="1.51"/><path d="M1184,1089L1020,1089L1361,1111Z" fill="#5a7da1" stroke="#5a7da1" stroke-width="1.51"/><path d="M2460,462L2490,297L2323,311Z" fill="#6095c5" stroke="#6095c5" stroke-width="1.51"/><path d="M2626,312L2490,297L2636,443Z" fill="#5d91c2" stroke="#5d91c2" stroke-width="1.51"/><path d="M560,600L743,751L737,594Z" fill="#8aaed2" stroke="#8aaed2" stroke-width="1.51"/><path d="M737,594L743,751L873,618Z" fill="#85abd1" stroke="#85abd1" stroke-width="1.51"/><path d="M2317,1068L2337,919L2168,926Z" fill="#196fa5" stroke="#196fa5" stroke-width="1.51"/><path d="M2327,791L2473,749L2342,613Z" fill="#227eb7" stroke="#227eb7" stroke-width="1.51"/><path d="M1993,1103L2183,1096L2168,926Z" fill="#1f6e9d" stroke="#1f6e9d" stroke-width="1.51"/><path d="M2490,297L2501,137L2300,137Z" fill="#789eca" stroke="#789eca" stroke-width="1.51"/><path d="M2178,-170L2342,-205L1977,-179Z" fill="#9fbbda" stroke="#9fbbda" stroke-width="1.51"/><path d="M2316,-46L2342,-205L2178,-170Z" fill="#9ab6d7" stroke="#9ab6d7" stroke-width="1.51"/><path d="M2468,-177L2342,-205L2316,-46Z" fill="#98b2d6" stroke="#98b2d6" stroke-width="1.51"/><path d="M2636,443L2490,297L2460,462Z" fill="#568fc2" stroke="#568fc2" stroke-width="1.51"/><path d="M2490,297L2626,312L2501,137Z" fill="#6e97c7" stroke="#6e97c7" stroke-width="1.51"/><path d="M2483,908L2473,749L2327,791Z" fill="#1274b2" stroke="#1274b2" stroke-width="1.51"/><path d="M876,-178L696,-43L897,-37Z" fill="#d6d8ea" stroke="#d6d8ea" stroke-width="1.51"/><path d="M574,283L573,463L709,302Z" fill="#b2c3df" stroke="#b2c3df" stroke-width="1.51"/><path d="M2501,137L2486,-26L2300,137Z" fill="#85a4cd" stroke="#85a4cd" stroke-width="1.51"/><path d="M743,1067L869,1065L857,918Z" fill="#708db3" stroke="#708db3" stroke-width="1.51"/><path d="M857,918L869,1065L1024,948Z" fill="#6e8fb7" stroke="#6e8fb7" stroke-width="1.51"/><path d="M2337,919L2483,908L2327,791Z" fill="#1472ad" stroke="#1472ad" stroke-width="1.51"/><path d="M2183,1096L2317,1068L2168,926Z" fill="#1a6b9e" stroke="#1a6b9e" stroke-width="1.51"/><path d="M705,459L560,600L737,594Z" fill="#96b5d6" stroke="#96b5d6" stroke-width="1.51"/><path d="M743,751L705,919L857,918Z" fill="#7a99c4" stroke="#7a99c4" stroke-width="1.51"/><path d="M574,283L709,302L707,150Z" fill="#bdc8e1" stroke="#bdc8e1" stroke-width="1.51"/><path d="M553,106L574,283L707,150Z" fill="#c7cce4" stroke="#c7cce4" stroke-width="1.51"/><path d="M555,793L705,919L743,751Z" fill="#809eca" stroke="#809eca" stroke-width="1.51"/><path d="M696,-43L553,106L707,150Z" fill="#d1d1e7" stroke="#d1d1e7" stroke-width="1.51"/><path d="M876,-178L724,-195L696,-43Z" fill="#dbdbeb" stroke="#dbdbeb" stroke-width="1.51"/><path d="M1047,-200L724,-195L876,-178Z" fill="#d9dbeb" stroke="#d9dbeb" stroke-width="1.51"/><path d="M542,-214L724,-195L1047,-200Z" fill="#dfdeed" stroke="#dfdeed" stroke-width="1.51"/><path d="M2636,443L2460,462L2637,613Z" fill="#4288bd" stroke="#4288bd" stroke-width="1.51"/><path d="M2463,1078L2483,908L2337,919Z" fill="#106ba2" stroke="#106ba2" stroke-width="1.51"/><path d="M2460,462L2459,606L2637,613Z" fill="#3886bc" stroke="#3886bc" stroke-width="1.51"/><path d="M2501,137L2647,109L2486,-26Z" fill="#84a0cc" stroke="#84a0cc" stroke-width="1.51"/><path d="M2631,-38L2468,-177L2486,-26Z" fill="#90aad1" stroke="#90aad1" stroke-width="1.51"/><path d="M2486,-26L2468,-177L2316,-46Z" fill="#93aed4" stroke="#93aed4" stroke-width="1.51"/><path d="M573,463L560,600L705,459Z" fill="#9eb9d9" stroke="#9eb9d9" stroke-width="1.51"/><path d="M394,438L560,600L573,463Z" fill="#a2bcda" stroke="#a2bcda" stroke-width="1.51"/><path d="M2637,613L2459,606L2473,749Z" fill="#237eb8" stroke="#237eb8" stroke-width="1.51"/><path d="M574,283L394,438L573,463Z" fill="#afc3de" stroke="#afc3de" stroke-width="1.51"/><path d="M573,-32L553,106L696,-43Z" fill="#d7d6e9" stroke="#d7d6e9" stroke-width="1.51"/><path d="M2634,745L2637,613L2473,749Z" fill="#1b79b4" stroke="#1b79b4" stroke-width="1.51"/><path d="M705,919L743,1067L857,918Z" fill="#7692b9" stroke="#7692b9" stroke-width="1.51"/><path d="M869,1065L743,1067L1020,1089Z" fill="#6a86a9" stroke="#6a86a9" stroke-width="1.51"/><path d="M569,938L743,1067L705,919Z" fill="#7a94ba" stroke="#7a94ba" stroke-width="1.51"/><path d="M724,-195L573,-32L696,-43Z" fill="#dddbeb" stroke="#dddbeb" stroke-width="1.51"/><path d="M2806,276L2626,312L2636,443Z" fill="#5d8ebe" stroke="#5d8ebe" stroke-width="1.51"/><path d="M2806,276L2647,109L2626,312Z" fill="#6e94c1" stroke="#6e94c1" stroke-width="1.51"/><path d="M2626,312L2647,109L2501,137Z" fill="#7599c7" stroke="#7599c7" stroke-width="1.51"/><path d="M2625,907L2634,745L2473,749Z" fill="#0770b0" stroke="#0770b0" stroke-width="1.51"/><path d="M409,623L555,793L560,600Z" fill="#8fafd3" stroke="#8fafd3" stroke-width="1.51"/><path d="M560,600L555,793L743,751Z" fill="#88a9d0" stroke="#88a9d0" stroke-width="1.51"/><path d="M2317,1068L2463,1078L2337,919Z" fill="#13689c" stroke="#13689c" stroke-width="1.51"/><path d="M2483,908L2625,907L2473,749Z" fill="#086eac" stroke="#086eac" stroke-width="1.51"/><path d="M2183,1096L2463,1078L2317,1068Z" fill="#146494" stroke="#146494" stroke-width="1.51"/><path d="M2647,109L2631,-38L2486,-26Z" fill="#88a3cd" stroke="#88a3cd" stroke-width="1.51"/><path d="M555,793L569,938L705,919Z" fill="#809bc4" stroke="#809bc4" stroke-width="1.51"/><path d="M2463,1078L2625,907L2483,908Z" fill="#0867a1" stroke="#0867a1" stroke-width="1.51"/><path d="M375,305L394,438L574,283Z" fill="#b8c7e1" stroke="#b8c7e1" stroke-width="1.51"/><path d="M555,793L380,905L569,938Z" fill="#839dc5" stroke="#839dc5" stroke-width="1.51"/><path d="M375,305L574,283L393,150Z" fill="#c4cde3" stroke="#c4cde3" stroke-width="1.51"/><path d="M393,150L574,283L553,106Z" fill="#cacfe5" stroke="#cacfe5" stroke-width="1.51"/><path d="M724,-195L542,-214L573,-32Z" fill="#e2dfee" stroke="#e2dfee" stroke-width="1.51"/><path d="M1222,-205L542,-214L1047,-200Z" fill="#d7dbeb" stroke="#d7dbeb" stroke-width="1.51"/><path d="M1850,-205L542,-214L1222,-205Z" fill="#cbd5e9" stroke="#cbd5e9" stroke-width="1.51"/><path d="M2971,-209L542,-214L1850,-205Z" fill="#b0c8e1" stroke="#b0c8e1" stroke-width="1.51"/><path d="M394,438L409,623L560,600Z" fill="#9dbad8" stroke="#9dbad8" stroke-width="1.51"/><path d="M393,150L553,106L396,-43Z" fill="#d7d6e9" stroke="#d7d6e9" stroke-width="1.51"/><path d="M244,592L392,772L409,623Z" fill="#94b3d5" stroke="#94b3d5" stroke-width="1.51"/><path d="M396,-43L553,106L573,-32Z" fill="#dad9ea" stroke="#dad9ea" stroke-width="1.51"/><path d="M2795,-45L2657,-196L2631,-38Z" fill="#8fa6cc" stroke="#8fa6cc" stroke-width="1.51"/><path d="M2631,-38L2657,-196L2468,-177Z" fill="#93abd1" stroke="#93abd1" stroke-width="1.51"/><path d="M2468,-177L2657,-196L2342,-205Z" fill="#98b0d5" stroke="#98b0d5" stroke-width="1.51"/><path d="M2795,-45L2631,-38L2647,109Z" fill="#87a0c8" stroke="#87a0c8" stroke-width="1.51"/><path d="M2806,474L2636,443L2637,613Z" fill="#4085b8" stroke="#4085b8" stroke-width="1.51"/><path d="M2794,608L2806,474L2637,613Z" fill="#3480b3" stroke="#3480b3" stroke-width="1.51"/><path d="M2794,608L2637,613L2634,745Z" fill="#217ab2" stroke="#217ab2" stroke-width="1.51"/><path d="M2806,474L2806,276L2636,443Z" fill="#538aba" stroke="#538aba" stroke-width="1.51"/><path d="M2781,791L2794,608L2634,745Z" fill="#1974ad" stroke="#1974ad" stroke-width="1.51"/><path d="M2971,293L2814,135L2806,276Z" fill="#6b90bb" stroke="#6b90bb" stroke-width="1.51"/><path d="M2806,276L2814,135L2647,109Z" fill="#7596c1" stroke="#7596c1" stroke-width="1.51"/><path d="M423,1111L556,1097L569,938Z" fill="#7a90b1" stroke="#7a90b1" stroke-width="1.51"/><path d="M569,938L556,1097L743,1067Z" fill="#788fb2" stroke="#788fb2" stroke-width="1.51"/><path d="M743,1067L556,1097L1020,1089Z" fill="#6f86a8" stroke="#6f86a8" stroke-width="1.51"/><path d="M1020,1089L423,1111L1361,1111Z" fill="#6681a3" stroke="#6681a3" stroke-width="1.51"/><path d="M409,623L392,772L555,793Z" fill="#8dabd1" stroke="#8dabd1" stroke-width="1.51"/><path d="M244,592L409,623L394,438Z" fill="#a0bcda" stroke="#a0bcda" stroke-width="1.51"/><path d="M542,-214L396,-43L573,-32Z" fill="#e2dfed" stroke="#e2dfed" stroke-width="1.51"/><path d="M229,289L257,440L375,305Z" fill="#bccbe3" stroke="#bccbe3" stroke-width="1.51"/><path d="M2625,907L2781,791L2634,745Z" fill="#056cab" stroke="#056cab" stroke-width="1.51"/><path d="M2794,608L2945,628L2806,474Z" fill="#327db0" stroke="#327db0" stroke-width="1.51"/><path d="M2800,946L2781,791L2625,907Z" fill="#0567a2" stroke="#0567a2" stroke-width="1.51"/><path d="M2800,1100L2463,1078L2183,1096Z" fill="#0a5e90" stroke="#0a5e90" stroke-width="1.51"/><path d="M2800,1100L2644,1082L2463,1078Z" fill="#04598c" stroke="#04598c" stroke-width="1.51"/><path d="M2463,1078L2644,1082L2625,907Z" fill="#056199" stroke="#056199" stroke-width="1.51"/><path d="M2814,135L2795,-45L2647,109Z" fill="#819cc5" stroke="#819cc5" stroke-width="1.51"/><path d="M235,789L380,905L392,772Z" fill="#8ba5ce" stroke="#8ba5ce" stroke-width="1.51"/><path d="M392,772L380,905L555,793Z" fill="#88a2cc" stroke="#88a2cc" stroke-width="1.51"/><path d="M375,305L257,440L394,438Z" fill="#b4c7e0" stroke="#b4c7e0" stroke-width="1.51"/><path d="M251,140L375,305L393,150Z" fill="#cdd2e6" stroke="#cdd2e6" stroke-width="1.51"/><path d="M542,-214L377,-184L396,-43Z" fill="#e7e3f0" stroke="#e7e3f0" stroke-width="1.51"/><path d="M396,-43L251,140L393,150Z" fill="#d9d8ea" stroke="#d9d8ea" stroke-width="1.51"/><path d="M2644,1082L2800,946L2625,907Z" fill="#04629a" stroke="#04629a" stroke-width="1.51"/><path d="M2781,791L2945,628L2794,608Z" fill="#1d75ab" stroke="#1d75ab" stroke-width="1.51"/><path d="M2806,474L2970,427L2806,276Z" fill="#5387b6" stroke="#5387b6" stroke-width="1.51"/><path d="M2976,-35L2805,-197L2795,-45Z" fill="#8ca2c6" stroke="#8ca2c6" stroke-width="1.51"/><path d="M2795,-45L2805,-197L2657,-196Z" fill="#91a7cb" stroke="#91a7cb" stroke-width="1.51"/><path d="M2657,-196L2971,-209L2342,-205Z" fill="#95acd0" stroke="#95acd0" stroke-width="1.51"/><path d="M235,-27L251,140L396,-43Z" fill="#dfddec" stroke="#dfddec" stroke-width="1.51"/><path d="M257,440L244,592L394,438Z" fill="#a9c2de" stroke="#a9c2de" stroke-width="1.51"/><path d="M99,604L244,592L70,444Z" fill="#a7c1dd" stroke="#a7c1dd" stroke-width="1.51"/><path d="M251,140L229,289L375,305Z" fill="#c9d0e6" stroke="#c9d0e6" stroke-width="1.51"/><path d="M380,905L423,1111L569,938Z" fill="#8197bc" stroke="#8197bc" stroke-width="1.51"/><path d="M556,1097L423,1111L1020,1089Z" fill="#7287a7" stroke="#7287a7" stroke-width="1.51"/><path d="M251,1082L423,1111L380,905Z" fill="#8095b5" stroke="#8095b5" stroke-width="1.51"/><path d="M2970,766L2945,628L2781,791Z" fill="#166fa7" stroke="#166fa7" stroke-width="1.51"/><path d="M2814,135L2976,-35L2795,-45Z" fill="#839cc2" stroke="#839cc2" stroke-width="1.51"/><path d="M2945,628L2970,427L2806,474Z" fill="#3e80b0" stroke="#3e80b0" stroke-width="1.51"/><path d="M2970,427L2971,293L2806,276Z" fill="#5c8ab6" stroke="#5c8ab6" stroke-width="1.51"/><path d="M251,140L98,279L229,289Z" fill="#ccd3e7" stroke="#ccd3e7" stroke-width="1.51"/><path d="M237,-168L235,-27L396,-43Z" fill="#e7e3f0" stroke="#e7e3f0" stroke-width="1.51"/><path d="M244,592L235,789L392,772Z" fill="#92afd4" stroke="#92afd4" stroke-width="1.51"/><path d="M99,604L235,789L244,592Z" fill="#99b6d7" stroke="#99b6d7" stroke-width="1.51"/><path d="M3442,1108L2800,1100L1993,1103Z" fill="#045586" stroke="#045586" stroke-width="1.51"/><path d="M1993,1103L2800,1100L2183,1096Z" fill="#146191" stroke="#146191" stroke-width="1.51"/><path d="M2644,1082L2800,1100L2800,946Z" fill="#045b8f" stroke="#045b8f" stroke-width="1.51"/><path d="M2940,924L2970,766L2781,791Z" fill="#0467a2" stroke="#0467a2" stroke-width="1.51"/><path d="M3142,120L2978,113L2971,293Z" fill="#708eb7" stroke="#708eb7" stroke-width="1.51"/><path d="M2971,293L2978,113L2814,135Z" fill="#7191bb" stroke="#7191bb" stroke-width="1.51"/><path d="M2940,924L2781,791L2800,946Z" fill="#04649e" stroke="#04649e" stroke-width="1.51"/><path d="M3140,457L3136,313L2970,427Z" fill="#4f82ac" stroke="#4f82ac" stroke-width="1.51"/><path d="M2970,427L3136,313L2971,293Z" fill="#5987b1" stroke="#5987b1" stroke-width="1.51"/><path d="M2978,113L2976,-35L2814,135Z" fill="#7e97be" stroke="#7e97be" stroke-width="1.51"/><path d="M377,-184L237,-168L396,-43Z" fill="#e9e5f1" stroke="#e9e5f1" stroke-width="1.51"/><path d="M69,133L98,279L251,140Z" fill="#d4d7e9" stroke="#d4d7e9" stroke-width="1.51"/><path d="M98,-181L237,-168L377,-184Z" fill="#eee9f3" stroke="#eee9f3" stroke-width="1.51"/><path d="M66,914L235,922L235,789Z" fill="#8da4ca" stroke="#8da4ca" stroke-width="1.51"/><path d="M235,789L235,922L380,905Z" fill="#8aa2c9" stroke="#8aa2c9" stroke-width="1.51"/><path d="M2958,1076L2940,924L2800,946Z" fill="#045d93" stroke="#045d93" stroke-width="1.51"/><path d="M229,289L70,444L257,440Z" fill="#b9cbe2" stroke="#b9cbe2" stroke-width="1.51"/><path d="M69,133L251,140L235,-27Z" fill="#dedcec" stroke="#dedcec" stroke-width="1.51"/><path d="M70,444L244,592L257,440Z" fill="#acc4de" stroke="#acc4de" stroke-width="1.51"/><path d="M2976,-35L2971,-209L2805,-197Z" fill="#8ea3c5" stroke="#8ea3c5" stroke-width="1.51"/><path d="M2805,-197L2971,-209L2657,-196Z" fill="#93a7cb" stroke="#93a7cb" stroke-width="1.51"/><path d="M2342,-205L2971,-209L1850,-205Z" fill="#9bb4d7" stroke="#9bb4d7" stroke-width="1.51"/><path d="M235,922L251,1082L380,905Z" fill="#869cbf" stroke="#869cbf" stroke-width="1.51"/><path d="M61,1101L251,1082L235,922Z" fill="#8598b7" stroke="#8598b7" stroke-width="1.51"/><path d="M98,279L70,444L229,289Z" fill="#c1cee5" stroke="#c1cee5" stroke-width="1.51"/><path d="M98,279L-72,299L70,444Z" fill="#c3d0e5" stroke="#c3d0e5" stroke-width="1.51"/><path d="M87,-47L69,133L235,-27Z" fill="#e4e1ef" stroke="#e4e1ef" stroke-width="1.51"/><path d="M2800,1100L2958,1076L2800,946Z" fill="#03598c" stroke="#03598c" stroke-width="1.51"/><path d="M3125,772L3136,617L2970,766Z" fill="#166ba0" stroke="#166ba0" stroke-width="1.51"/><path d="M2970,427L2945,628L3136,617Z" fill="#347aaa" stroke="#347aaa" stroke-width="1.51"/><path d="M3140,457L2970,427L3136,617Z" fill="#3e7ba9" stroke="#3e7ba9" stroke-width="1.51"/><path d="M2978,113L3136,-45L2976,-35Z" fill="#8198bc" stroke="#8198bc" stroke-width="1.51"/><path d="M2976,-35L3139,-176L2971,-209Z" fill="#8ca0c0" stroke="#8ca0c0" stroke-width="1.51"/><path d="M3136,617L2945,628L2970,766Z" fill="#1d72a5" stroke="#1d72a5" stroke-width="1.51"/><path d="M237,-168L87,-47L235,-27Z" fill="#ebe6f1" stroke="#ebe6f1" stroke-width="1.51"/><path d="M-70,602L71,746L99,604Z" fill="#9dbad9" stroke="#9dbad9" stroke-width="1.51"/><path d="M99,604L71,746L235,789Z" fill="#97b3d6" stroke="#97b3d6" stroke-width="1.51"/><path d="M3125,772L2970,766L3137,930Z" fill="#05629b" stroke="#05629b" stroke-width="1.51"/><path d="M3271,277L3142,120L3136,313Z" fill="#6586ac" stroke="#6586ac" stroke-width="1.51"/><path d="M3136,313L3142,120L2971,293Z" fill="#678ab2" stroke="#678ab2" stroke-width="1.51"/><path d="M3137,930L2970,766L2940,924Z" fill="#046199" stroke="#046199" stroke-width="1.51"/><path d="M237,-168L98,-181L87,-47Z" fill="#eee9f3" stroke="#eee9f3" stroke-width="1.51"/><path d="M-95,145L-72,299L69,133Z" fill="#d6d9eb" stroke="#d6d9eb" stroke-width="1.51"/><path d="M542,-214L98,-181L377,-184Z" fill="#ece7f2" stroke="#ece7f2" stroke-width="1.51"/><path d="M3142,120L3136,-45L2978,113Z" fill="#7c93b7" stroke="#7c93b7" stroke-width="1.51"/><path d="M-90,745L66,914L71,746Z" fill="#94acd3" stroke="#94acd3" stroke-width="1.51"/><path d="M71,746L66,914L235,789Z" fill="#91a9d1" stroke="#91a9d1" stroke-width="1.51"/><path d="M-70,602L99,604L70,444Z" fill="#a8c2de" stroke="#a8c2de" stroke-width="1.51"/><path d="M2958,1076L3137,930L2940,924Z" fill="#045b8f" stroke="#045b8f" stroke-width="1.51"/><path d="M3266,591L3140,457L3136,617Z" fill="#3274a1" stroke="#3274a1" stroke-width="1.51"/><path d="M3292,462L3136,313L3140,457Z" fill="#4b7ca6" stroke="#4b7ca6" stroke-width="1.51"/><path d="M3272,-50L3139,-176L3136,-45Z" fill="#8598b6" stroke="#8598b6" stroke-width="1.51"/><path d="M3136,-45L3139,-176L2976,-35Z" fill="#879bbc" stroke="#879bbc" stroke-width="1.51"/><path d="M69,133L-72,299L98,279Z" fill="#d0d6e9" stroke="#d0d6e9" stroke-width="1.51"/><path d="M-95,145L69,133L-74,-38Z" fill="#e3dfee" stroke="#e3dfee" stroke-width="1.51"/><path d="M-99,439L-70,602L70,444Z" fill="#b1c7e0" stroke="#b1c7e0" stroke-width="1.51"/><path d="M2958,1076L3106,1097L3137,930Z" fill="#035485" stroke="#035485" stroke-width="1.51"/><path d="M2800,1100L3106,1097L2958,1076Z" fill="#045281" stroke="#045281" stroke-width="1.51"/><path d="M-72,299L-99,439L70,444Z" fill="#bdcee5" stroke="#bdcee5" stroke-width="1.51"/><path d="M251,1082L61,1101L423,1111Z" fill="#7f90ad" stroke="#7f90ad" stroke-width="1.51"/><path d="M66,914L61,1101L235,922Z" fill="#8a9ec0" stroke="#8a9ec0" stroke-width="1.51"/><path d="M-73,954L61,1101L66,914Z" fill="#8ca0c0" stroke="#8ca0c0" stroke-width="1.51"/><path d="M3292,462L3271,277L3136,313Z" fill="#547ea5" stroke="#547ea5" stroke-width="1.51"/><path d="M3142,120L3272,-50L3136,-45Z" fill="#7e92b3" stroke="#7e92b3" stroke-width="1.51"/><path d="M3266,591L3136,617L3296,760Z" fill="#1c6b9a" stroke="#1c6b9a" stroke-width="1.51"/><path d="M3136,617L3125,772L3296,760Z" fill="#156799" stroke="#156799" stroke-width="1.51"/><path d="M3296,760L3125,772L3282,919Z" fill="#045d93" stroke="#045d93" stroke-width="1.51"/><path d="M-253,284L-253,440L-99,439Z" fill="#c1d1e6" stroke="#c1d1e6" stroke-width="1.51"/><path d="M-74,-38L69,133L87,-47Z" fill="#e6e2ef" stroke="#e6e2ef" stroke-width="1.51"/><path d="M3266,591L3292,462L3140,457Z" fill="#3b76a0" stroke="#3b76a0" stroke-width="1.51"/><path d="M98,-181L-74,-38L87,-47Z" fill="#eee9f3" stroke="#eee9f3" stroke-width="1.51"/><path d="M-70,602L-90,745L71,746Z" fill="#9bb7d8" stroke="#9bb7d8" stroke-width="1.51"/><path d="M-252,603L-90,745L-70,602Z" fill="#a0bddb" stroke="#a0bddb" stroke-width="1.51"/><path d="M3419,280L3301,129L3271,277Z" fill="#6381a3" stroke="#6381a3" stroke-width="1.51"/><path d="M3271,277L3301,129L3142,120Z" fill="#6b87ab" stroke="#6b87ab" stroke-width="1.51"/><path d="M3301,129L3272,-50L3142,120Z" fill="#788dae" stroke="#788dae" stroke-width="1.51"/><path d="M3282,919L3125,772L3137,930Z" fill="#045c90" stroke="#045c90" stroke-width="1.51"/><path d="M3443,627L3450,466L3292,462Z" fill="#366e96" stroke="#366e96" stroke-width="1.51"/><path d="M3292,462L3419,280L3271,277Z" fill="#537ba0" stroke="#537ba0" stroke-width="1.51"/><path d="M-90,745L-73,954L66,914Z" fill="#92a8cd" stroke="#92a8cd" stroke-width="1.51"/><path d="M-74,-38L-234,131L-95,145Z" fill="#e5e1ef" stroke="#e5e1ef" stroke-width="1.51"/><path d="M-95,145L-253,284L-72,299Z" fill="#d3d8eb" stroke="#d3d8eb" stroke-width="1.51"/><path d="M98,-181L-97,-187L-74,-38Z" fill="#f2ecf5" stroke="#f2ecf5" stroke-width="1.51"/><path d="M542,-214L-97,-187L98,-181Z" fill="#f1ebf4" stroke="#f1ebf4" stroke-width="1.51"/><path d="M3272,-50L3267,-191L3139,-176Z" fill="#8798b4" stroke="#8798b4" stroke-width="1.51"/><path d="M3139,-176L3267,-191L2971,-209Z" fill="#8c9ebc" stroke="#8c9ebc" stroke-width="1.51"/><path d="M3456,-212L3267,-191L3272,-50Z" fill="#8494ae" stroke="#8494ae" stroke-width="1.51"/><path d="M3284,1070L3282,919L3137,930Z" fill="#035483" stroke="#035483" stroke-width="1.51"/><path d="M61,1101L-75,1099L423,1111Z" fill="#8291ac" stroke="#8291ac" stroke-width="1.51"/><path d="M-73,954L-75,1099L61,1101Z" fill="#8899b6" stroke="#8899b6" stroke-width="1.51"/><path d="M-241,1080L-75,1099L-73,954Z" fill="#8b9cb9" stroke="#8b9cb9" stroke-width="1.51"/><path d="M3106,1097L3284,1070L3137,930Z" fill="#03517f" stroke="#03517f" stroke-width="1.51"/><path d="M3443,627L3266,591L3296,760Z" fill="#1b6793" stroke="#1b6793" stroke-width="1.51"/><path d="M3301,129L3437,111L3272,-50Z" fill="#7589a8" stroke="#7589a8" stroke-width="1.51"/><path d="M3450,466L3419,280L3292,462Z" fill="#49759a" stroke="#49759a" stroke-width="1.51"/><path d="M3292,462L3266,591L3443,627Z" fill="#2f6e98" stroke="#2f6e98" stroke-width="1.51"/><path d="M-262,-24L-234,131L-74,-38Z" fill="#eae6f1" stroke="#eae6f1" stroke-width="1.51"/><path d="M-99,439L-252,603L-70,602Z" fill="#acc5e0" stroke="#acc5e0" stroke-width="1.51"/><path d="M-90,745L-221,946L-73,954Z" fill="#93a9cc" stroke="#93a9cc" stroke-width="1.51"/><path d="M-253,284L-99,439L-72,299Z" fill="#c6d3e7" stroke="#c6d3e7" stroke-width="1.51"/><path d="M-234,131L-253,284L-95,145Z" fill="#dadcec" stroke="#dadcec" stroke-width="1.51"/><path d="M-253,440L-252,603L-99,439Z" fill="#b4cae2" stroke="#b4cae2" stroke-width="1.51"/><path d="M3443,627L3296,760L3444,772Z" fill="#13608d" stroke="#13608d" stroke-width="1.51"/><path d="M3450,466L3437,111L3419,280Z" fill="#59799b" stroke="#59799b" stroke-width="1.51"/><path d="M3419,280L3437,111L3301,129Z" fill="#6881a2" stroke="#6881a2" stroke-width="1.51"/><path d="M3444,772L3296,760L3415,909Z" fill="#04588a" stroke="#04588a" stroke-width="1.51"/><path d="M-253,440L-258,755L-252,603Z" fill="#a8c3df" stroke="#a8c3df" stroke-width="1.51"/><path d="M-252,603L-258,755L-90,745Z" fill="#9fb9da" stroke="#9fb9da" stroke-width="1.51"/><path d="M-262,-24L-258,755L-253,440Z" fill="#c2d2e7" stroke="#c2d2e7" stroke-width="1.51"/><path d="M-253,284L-262,-24L-253,440Z" fill="#d6dbeb" stroke="#d6dbeb" stroke-width="1.51"/><path d="M-234,131L-262,-24L-253,284Z" fill="#e1e0ef" stroke="#e1e0ef" stroke-width="1.51"/><path d="M-97,-187L-262,-24L-74,-38Z" fill="#f1ebf5" stroke="#f1ebf5" stroke-width="1.51"/><path d="M-258,755L-221,946L-90,745Z" fill="#98aed4" stroke="#98aed4" stroke-width="1.51"/><path d="M3415,909L3296,760L3282,919Z" fill="#045788" stroke="#045788" stroke-width="1.51"/><path d="M3443,627L3444,772L3450,466Z" fill="#1f658f" stroke="#1f658f" stroke-width="1.51"/><path d="M3284,1070L3415,909L3282,919Z" fill="#04517f" stroke="#04517f" stroke-width="1.51"/><path d="M3442,1108L3462,-33L3450,466Z" fill="#356c93" stroke="#356c93" stroke-width="1.51"/><path d="M3450,466L3462,-33L3437,111Z" fill="#667e9d" stroke="#667e9d" stroke-width="1.51"/><path d="M3437,111L3462,-33L3272,-50Z" fill="#788aa6" stroke="#788aa6" stroke-width="1.51"/><path d="M-97,-187L-265,-199L-262,-24Z" fill="#f6eff6" stroke="#f6eff6" stroke-width="1.51"/><path d="M-262,-24L-265,-199L-258,755Z" fill="#dddeed" stroke="#dddeed" stroke-width="1.51"/><path d="M542,-214L-265,-199L-97,-187Z" fill="#f4edf6" stroke="#f4edf6" stroke-width="1.51"/><path d="M-258,755L-241,1080L-221,946Z" fill="#94a8c9" stroke="#94a8c9" stroke-width="1.51"/><path d="M-221,946L-241,1080L-73,954Z" fill="#8fa2c1" stroke="#8fa2c1" stroke-width="1.51"/><path d="M3462,-33L3456,-212L3272,-50Z" fill="#808fa9" stroke="#808fa9" stroke-width="1.51"/><path d="M3267,-191L3456,-212L2971,-209Z" fill="#8a9ab6" stroke="#8a9ab6" stroke-width="1.51"/><path d="M2971,-209L3456,-212L542,-214Z" fill="#9db7d8" stroke="#9db7d8" stroke-width="1.51"/><path d="M3444,772L3442,1108L3450,466Z" fill="#095888" stroke="#095888" stroke-width="1.51"/><path d="M3415,909L3442,1108L3444,772Z" fill="#034f7c" stroke="#034f7c" stroke-width="1.51"/><path d="M3284,1070L3442,1108L3415,909Z" fill="#034a74" stroke="#034a74" stroke-width="1.51"/><path d="M3106,1097L3442,1108L3284,1070Z" fill="#034770" stroke="#034770" stroke-width="1.51"/><path d="M2800,1100L3442,1108L3106,1097Z" fill="#034c78" stroke="#034c78" stroke-width="1.51"/><path d="M1361,1111L3442,1108L1993,1103Z" fill="#176391" stroke="#176391" stroke-width="1.51"/></svg>